<svg xmlns="http://www.w3.org/2000/svg" width="300" height="255" fill="none" viewBox="0 0 300 255"><g clip-path="url(#clip0_45_0)"><path fill="#F8F8F8" d="M212.98 20.13c31.03 7.68 56.56 41.32 56.16 74.49-.39 33.1-26.7 65.72-48.7 97.11-21.96 31.4-39.5 61.59-61.68 63.19-22.22 1.58-49.06-25.47-71.27-43.41-22.29-17.94-39.88-26.78-55.04-42.54-15.16-15.77-27.82-38.47-24.86-58.8 2.97-20.32 21.56-38.26 41-48.04 19.52-9.86 39.81-11.56 68.27-21.55 28.46-9.99 65.06-28.18 96.12-20.45Z"/><path stroke="#DFDFDF" stroke-linecap="round" stroke-linejoin="round" stroke-width="5" d="M197.28 173.63 156.7 91.05c-1.24-.75-6.2-4.04-6.2-4.04m3.3 10.57c-.49-1.65-1.94-5.05-1.94-5.05-.89-.06-7.07-3.34-7.07-3.34m-1.77.31 19.22-8.09"/><path fill="#000" d="M4.94 215.65 0 220.35l11.86 16.04 3.67-3.35-5.65-14.27-4.94-3.12ZM100.72 201l-4.08 7.77 10.14 16.27 4.27-1.13-2.8-21.25-7.53-1.65Z"/><path fill="#D37C59" d="M146.95 91.05c3.33 0 6.04-2.08 6.04-4.65 0-2.56-2.7-4.64-6.04-4.64-3.33 0-6.04 2.08-6.04 4.64 0 2.57 2.7 4.65 6.04 4.65Z"/><path fill="#56CAD8" d="M66.4 91.3c-2.71 4-62.38 124.82-62.38 124.82l6.75 4.25L89.5 132.5 66.4 91.3Z"/><path fill="#D37C59" d="M117.81 61.99c1.55 1.37 6.1 6.69 7.58 7.66 1.49.96 18.53 11.92 21.73 12.89 3.2.97-3.6 3.85-3.6 3.85s-22.2-5.08-23.84-6.2c-1.64-1.13-11.37-9.2-11.37-11.37 0-2.16 9.5-6.83 9.5-6.83Z"/><path fill="#FCC486" d="M104.8 51.6c4.96-5.55 14.63 7.6 14.42 9.52-.2 1.93-7.05 10.04-11.39 10.04-1.3 0-6.5-15.68-3.02-19.57Z"/><path fill="#74D5DE" d="M65.64 92.52c-1.17 1.6-6.21 14.4-6.21 18.8 0 30 43.37 37.78 49.6 37.78-.9 4.18-10.44 51.74-9.99 52.79.45 1.04 8.37 3.17 10 2.9 6.2-3.49 26.23-52 24.73-58.9-2.12-9.66-35.3-37.93-40.1-40.75-4.79-2.81-28.03-12.62-28.03-12.62Z"/><path fill="#FED385" d="M94.29 39.2c33.38 0 7.52 64.7 1.65 68.2-3.88 2.31-27.93-6.48-30.5-15.3-.89-3 10.4-52.9 28.85-52.9Z"/><path fill="#DE8E68" d="M141.87 93.23c3.33 0 6.03-2.08 6.03-4.64 0-2.56-2.7-4.64-6.03-4.64-3.34 0-6.04 2.08-6.04 4.64 0 2.56 2.7 4.64 6.04 4.64Z"/><path fill="#DE8E68" d="M83.63 69.07c.09 3.26 1.14 18.24 2.46 18.7 15.9 5.46 43.44 3.05 48.2 2.72 4.75-.32 7.8-3.78 7.57-4.6-.24-.82-15.2-7.1-41.16-7.84-.48-3.03.67-12.16-.52-12.98-1.19-.82-16.55 4-16.55 4Z"/><path fill="#FED892" d="M88.05 41.97c13.81-2.92 16.3 23.67 14.97 25.63-1.33 1.96-18.93 4.73-21.23 3.02-2.3-1.71-4.21-26.45 6.26-28.65Z"/><path fill="#D37C59" d="M97.45 22.66c-.64 2.5-4.98 16.84-4.7 17.6.26.76 6.23 4.1 8.53 3.74.08-1.1 1.06-6.94 3.05-10.45 2-3.52-6.88-10.89-6.88-10.89Z"/><path fill="#DE8E68" d="M115.14 22.73c.75-7.62-2.63-14.22-7.55-14.73-4.91-.51-9.5 5.25-10.25 12.88-.74 7.62 2.63 14.22 7.55 14.73 4.91.51 9.5-5.25 10.25-12.88Z"/><path fill="#FD8369" d="M96.48 22.66c-1.01-.58-2.94-3.97-2.94-7.12 0-4.93 4.77-7.74 7.98-9.2 2.44-1.12 4.5-6.34 10.04-6.34 4.42 0 4.72 4.59 6.75 4.76 5.27.46 8.22.66 8.22 4.6 0 2.9-3.6 10.8-10.97 10.8 0-1.46-.47-5.1-1.26-6.84-4.42.23-8.02 6.09-14.15 6.06-1.32-.02-3.67 3.28-3.67 3.28Z"/><path fill="#DE8E68" d="M98.8 25.12c1.5 0 2.72-1.54 2.72-3.43 0-1.9-1.22-3.43-2.72-3.43-1.5 0-2.72 1.54-2.72 3.43 0 1.9 1.22 3.43 2.72 3.43Z"/><path stroke="#DFDFDF" stroke-linecap="round" stroke-linejoin="round" stroke-width="5" d="M294.85 204.8H168.1v-28.36c6.93-.63 105.47-10.23 105.47-10.23v-61.64L153.8 97.58l14.31 78.87m10.19 44.01a5.97 5.97 0 0 0 5.88-6.07 5.97 5.97 0 0 0-5.88-6.06 5.97 5.97 0 0 0-5.88 6.06 5.97 5.97 0 0 0 5.88 6.07Zm114.85 0a5.97 5.97 0 0 0 5.88-6.07 5.97 5.97 0 0 0-5.88-6.06 5.97 5.97 0 0 0-5.88 6.06 5.97 5.97 0 0 0 5.88 6.07Zm-134.67-97.11h115.1m-111.92 17.53h111.92M133.29 93.59l9.73-4.1"/><path stroke="#DFDFDF" stroke-linecap="round" stroke-linejoin="round" stroke-width="5" d="M171.4 140.88c-1.26-3.68-14.64-43.13-14.64-43.13"/></g><defs><clipPath id="clip0_45_0"><path fill="#fff" d="M0 0h300v255H0z"/></clipPath></defs></svg>